<svg id="visual" viewBox="0 0 900 600" width="900" height="600" xmlns="http://www.w3.org/2000/svg" xmlns:xlink="http://www.w3.org/1999/xlink" version="1.1"><rect x="0" y="0" width="900" height="600" fill="#ffffff"></rect><path d="M0 386L16.7 385.7C33.3 385.3 66.7 384.7 100 386.5C133.3 388.3 166.7 392.7 200 391.7C233.3 390.7 266.7 384.3 300 378.2C333.3 372 366.7 366 400 366.3C433.3 366.7 466.7 373.3 500 385.8C533.3 398.3 566.7 416.7 600 419.8C633.3 423 666.7 411 700 407C733.3 403 766.7 407 800 402.5C833.3 398 866.7 385 883.3 378.5L900 372L900 601L883.3 601C866.7 601 833.3 601 800 601C766.7 601 733.3 601 700 601C666.7 601 633.3 601 600 601C566.7 601 533.3 601 500 601C466.7 601 433.3 601 400 601C366.7 601 333.3 601 300 601C266.7 601 233.3 601 200 601C166.7 601 133.3 601 100 601C66.7 601 33.3 601 16.7 601L0 601Z" fill="#1e40af"></path><path d="M0 446L16.7 439.2C33.3 432.3 66.7 418.7 100 422.3C133.3 426 166.7 447 200 450.2C233.3 453.3 266.7 438.7 300 440.3C333.3 442 366.7 460 400 461C433.3 462 466.7 446 500 438C533.3 430 566.7 430 600 429.8C633.3 429.7 666.7 429.3 700 430.5C733.3 431.7 766.7 434.3 800 436C833.3 437.7 866.7 438.3 883.3 438.7L900 439L900 601L883.3 601C866.7 601 833.3 601 800 601C766.7 601 733.3 601 700 601C666.7 601 633.3 601 600 601C566.7 601 533.3 601 500 601C466.7 601 433.3 601 400 601C366.7 601 333.3 601 300 601C266.7 601 233.3 601 200 601C166.7 601 133.3 601 100 601C66.7 601 33.3 601 16.7 601L0 601Z" fill="#005fbf"></path><path d="M0 473L16.7 472C33.3 471 66.7 469 100 475C133.3 481 166.7 495 200 493.3C233.3 491.7 266.7 474.3 300 468.8C333.3 463.3 366.7 469.7 400 478.2C433.3 486.7 466.7 497.3 500 491.2C533.3 485 566.7 462 600 458.7C633.3 455.3 666.7 471.7 700 472.3C733.3 473 766.7 458 800 449.8C833.3 441.7 866.7 440.3 883.3 439.7L900 439L900 601L883.3 601C866.7 601 833.3 601 800 601C766.7 601 733.3 601 700 601C666.7 601 633.3 601 600 601C566.7 601 533.3 601 500 601C466.7 601 433.3 601 400 601C366.7 601 333.3 601 300 601C266.7 601 233.3 601 200 601C166.7 601 133.3 601 100 601C66.7 601 33.3 601 16.7 601L0 601Z" fill="#007bc9"></path><path d="M0 489L16.7 489.7C33.3 490.3 66.7 491.7 100 494.7C133.3 497.7 166.7 502.3 200 502.7C233.3 503 266.7 499 300 498.2C333.3 497.3 366.7 499.7 400 497.5C433.3 495.3 466.7 488.7 500 486.8C533.3 485 566.7 488 600 493.7C633.3 499.3 666.7 507.7 700 510.5C733.3 513.3 766.7 510.7 800 507.7C833.3 504.7 866.7 501.3 883.3 499.7L900 498L900 601L883.3 601C866.7 601 833.3 601 800 601C766.7 601 733.3 601 700 601C666.7 601 633.3 601 600 601C566.7 601 533.3 601 500 601C466.7 601 433.3 601 400 601C366.7 601 333.3 601 300 601C266.7 601 233.3 601 200 601C166.7 601 133.3 601 100 601C66.7 601 33.3 601 16.7 601L0 601Z" fill="#0094cc"></path><path d="M0 572L16.7 568.7C33.3 565.3 66.7 558.7 100 557.5C133.3 556.3 166.7 560.7 200 559C233.3 557.3 266.7 549.7 300 549.3C333.3 549 366.7 556 400 556.2C433.3 556.3 466.7 549.7 500 547C533.3 544.3 566.7 545.7 600 548.5C633.3 551.3 666.7 555.7 700 555.7C733.3 555.7 766.7 551.3 800 547.5C833.3 543.7 866.7 540.3 883.3 538.7L900 537L900 601L883.3 601C866.7 601 833.3 601 800 601C766.7 601 733.3 601 700 601C666.7 601 633.3 601 600 601C566.7 601 533.3 601 500 601C466.7 601 433.3 601 400 601C366.7 601 333.3 601 300 601C266.7 601 233.3 601 200 601C166.7 601 133.3 601 100 601C66.7 601 33.3 601 16.7 601L0 601Z" fill="#24a9c7"></path></svg>